<?xml version="1.0" encoding="utf-8"?>
<!-- Svg Vector Icons : http://www.onlinewebfonts.com/icon -->
<!DOCTYPE svg PUBLIC "-//W3C//DTD SVG 1.1//EN" "http://www.w3.org/Graphics/SVG/1.1/DTD/svg11.dtd">
<svg version="1.1" xmlns="http://www.w3.org/2000/svg" xmlns:xlink="http://www.w3.org/1999/xlink" x="0px" y="0px" viewBox="0 0 1000 1000" enable-background="new 0 0 1000 1000" xml:space="preserve">
<metadata> Svg Vector Icons : http://www.onlinewebfonts.com/icon </metadata>
<g><g transform="translate(0.000000,511.000000) scale(0.100000,-0.100000)"><path d="M1104.6,4966.9C230,4779.8-184.8,3745.2,315.6,3003.6C367.5,2927,1185.7,2093,2315,965.9C4077.7-792.3,4240-947.8,4386.5-1022.2c229.9-117.2,421.5-157.8,696.5-144.3c259.2,11.3,412.5,60.9,613.1,196.1C5775-918.5,6609-98,7745.1,1040.3c2058,2064.7,1997.1,1997.1,2096.3,2328.5c27.1,87.9,40.6,209.6,40.6,349.4c0,365.2-117.2,649.2-371.9,903.9c-419.3,423.8-1118,498.2-1607.2,171.3c-90.2-60.9-1690.6-1589.1-2745.5-2623.8l-171.3-171.3l-910.7,888.1c-498.1,486.9-1106.7,1079.7-1347.9,1316.4c-518.4,507.2-597.3,572.5-791.2,665C1661.3,4996.2,1386.3,5027.8,1104.6,4966.9z"/><path d="M1318.7-1939.6c-550-74.4-1034.6-525.2-1149.6-1070.7c-42.8-200.6-42.8-498.1,0-696.5c83.4-394.5,369.7-759.6,734.8-933.2c103.7-49.6,250.2-103.7,324.6-117.2c96.9-18,1190.2-22.5,3865.8-18l3730.5,6.8l146.5,51.8c421.5,153.3,737.1,475.6,870.1,892.6c49.6,153.3,58.6,225.4,58.6,453.1c0,184.8-11.3,317.8-38.3,417c-119.5,462.1-493.7,840.8-969.3,982.8c-128.5,38.3-335.9,40.6-3786.9,45.1C3097.2-1923.8,1393.1-1930.6,1318.7-1939.6z"/></g></g>
</svg>